<svg xmlns="http://www.w3.org/2000/svg" version="1.1" width="3586.7" height="2471.3">style="background-color:rgb(none)">
<polygon id="BRDW08_?49" points="2633,759 2777,759 2777,1042 2633,1042" stroke="rgb(none)" stroke-width="0.1" fill="none" />
<polygon id="BRDW08_?51" points="1569,655 1769,655 1769,746 1569,746" stroke="rgb(none)" stroke-width="0.1" fill="none" />
<polygon id="BRDW08_?25" points="809,759 953,759 953,1041 809,1041" stroke="rgb(none)" stroke-width="0.1" fill="none" />
<polygon id="BRDW08_BR-801" points="1349,1639 1349,1894 1073,1894 1073,2007 1348,2007 1348,2033 1351,2033 1351,2148 1379,2148 1379,2174 1534,2174 1534,1639" stroke="rgb(none)" stroke-width="0.1" fill="none" />
<polygon id="BRDW08_BR-12.008" points="3149,297 2951,297 2951,511 2944,511 2944,552 3149,552" stroke="rgb(none)" stroke-width="0.1" fill="none" />
<polygon id="BRDW08_BR-11.008" points="1073,2007 1073,2174 1379,2174 1379,2148 1351,2148 1351,2033 1348,2033 1348,2007" stroke="rgb(none)" stroke-width="0.1" fill="none" />
<polygon id="BRDW08_BR-23.008" points="1265,1597 1199,1597 1199,1559 1265,1559" stroke="rgb(none)" stroke-width="0.1" fill="none" />
<polygon id="BRDW08_BR-4.008" points="1349,1766 1199,1766 1199,1894 1349,1894" stroke="rgb(none)" stroke-width="0.1" fill="none" />
<polygon id="BRDW08_BR-5.008" points="1349,1639 1199,1639 1199,1766 1349,1766" stroke="rgb(none)" stroke-width="0.1" fill="none" />
<polygon id="BRDW08_BR-24.008" points="1199,1597 1265,1597 1265,1639 1199,1639" stroke="rgb(none)" stroke-width="0.1" fill="none" />
<polygon id="BRDW08_BR-3.008" points="1199,1671 1073,1671 1073,1559 1199,1559" stroke="rgb(none)" stroke-width="0.1" fill="none" />
<polygon id="BRDW08_BR-2.008" points="1199,1781 1073,1781 1073,1671 1199,1671" stroke="rgb(none)" stroke-width="0.1" fill="none" />
<polygon id="BRDW08_BR-1.008" points="1199,1894 1073,1894 1073,1781 1199,1781" stroke="rgb(none)" stroke-width="0.1" fill="none" />
<polygon id="BRDW08_BR-800" points="471,511 471,723 434,723 434,1041 809,1041 809,759 1569,759 1569,655 1769,655 1769,746 2633,746 2633,759 2777,759 2777,1042 2633,1042 2633,746 1569,746 1569,759 953,759 953,1041 434,1041 434,1390 1073,1390 1073,1559 1265,1559 1265,1639 1534,1639 1534,1390 3152,1390 3152,648 3149,648 3149,552 2944,552 2944,511" stroke="rgb(none)" stroke-width="0.1" fill="none" />
<circle cx="140" cy="2585" r="" stroke-width="1.0" stroke="rgb(225,225,225)" fill="none" />
<path d="M 1226,893 A 11.99,11.99 0 0 1 1226,893" stroke-width="1.0" stroke="rgb(225,225,225)" fill="none" />
<path d="M 1226,856 A 11.99,11.99 0 0 1 1226,856" stroke-width="1.0" stroke="rgb(225,225,225)" fill="none" />
<line x1="1107" y1="767" x2="1107" y2="723" stroke-width="1.0" stroke="rgb(225,225,225)" />
<line x1="1106" y1="767" x2="1106" y2="723" stroke-width="1.0" stroke="rgb(225,225,225)" />
<line x1="1106" y1="877" x2="1106" y2="834" stroke-width="1.0" stroke="rgb(225,225,225)" />
<line x1="1107" y1="877" x2="1107" y2="834" stroke-width="1.0" stroke="rgb(225,225,225)" />
<line x1="1108" y1="657" x2="1108" y2="613" stroke-width="1.0" stroke="rgb(225,225,225)" />
<line x1="1107" y1="657" x2="1107" y2="613" stroke-width="1.0" stroke="rgb(225,225,225)" />
<line x1="423" y1="1789" x2="423" y2="1749" stroke-width="1.0" stroke="rgb(225,225,225)" />
<line x1="1292" y1="693" x2="1292" y2="608" stroke-width="1.0" stroke="rgb(225,225,225)" />
<line x1="1292" y1="717" x2="1292" y2="802" stroke-width="1.0" stroke="rgb(225,225,225)" />
<line x1="1333" y1="689" x2="1333" y2="658" stroke-width="1.0" stroke="rgb(225,225,225)" />
<line x1="1333" y1="720" x2="1333" y2="751" stroke-width="1.0" stroke="rgb(225,225,225)" />
<line x1="1334" y1="658" x2="1334" y2="689" stroke-width="1.0" stroke="rgb(225,225,225)" />
<line x1="1334" y1="751" x2="1334" y2="720" stroke-width="1.0" stroke="rgb(225,225,225)" />
<line x1="1294" y1="697" x2="1289" y2="697" stroke-width="1.0" stroke="rgb(225,225,225)" />
<line x1="1294" y1="712" x2="1289" y2="712" stroke-width="1.0" stroke="rgb(225,225,225)" />
<line x1="1292" y1="697" x2="1292" y2="694" stroke-width="1.0" stroke="rgb(225,225,225)" />
<line x1="1292" y1="712" x2="1292" y2="716" stroke-width="1.0" stroke="rgb(225,225,225)" />
<line x1="1242" y1="594" x2="1283" y2="594" stroke-width="1.0" stroke="rgb(225,225,225)" />
<line x1="1333" y1="628" x2="1333" y2="659" stroke-width="1.0" stroke="rgb(225,225,225)" />
<line x1="1331" y1="659" x2="1331" y2="628" stroke-width="1.0" stroke="rgb(225,225,225)" />
<line x1="1283" y1="596" x2="1283" y2="591" stroke-width="1.0" stroke="rgb(225,225,225)" />
<line x1="1242" y1="596" x2="1242" y2="591" stroke-width="1.0" stroke="rgb(225,225,225)" />
<line x1="1283" y1="813" x2="1283" y2="819" stroke-width="1.0" stroke="rgb(225,225,225)" />
<line x1="1242" y1="813" x2="1242" y2="819" stroke-width="1.0" stroke="rgb(225,225,225)" />
<line x1="1292" y1="602" x2="1292" y2="606" stroke-width="1.0" stroke="rgb(225,225,225)" />
<line x1="1294" y1="602" x2="1289" y2="602" stroke-width="1.0" stroke="rgb(225,225,225)" />
<line x1="1294" y1="807" x2="1289" y2="807" stroke-width="1.0" stroke="rgb(225,225,225)" />
<line x1="1244" y1="816" x2="1282" y2="816" stroke-width="1.0" stroke="rgb(225,225,225)" />
<line x1="1333" y1="780" x2="1333" y2="750" stroke-width="1.0" stroke="rgb(225,225,225)" />
<line x1="1331" y1="750" x2="1331" y2="780" stroke-width="1.0" stroke="rgb(225,225,225)" />
<line x1="1263" y1="820" x2="1263" y2="812" stroke-width="1.0" stroke="rgb(225,225,225)" />
<line x1="1292" y1="807" x2="1292" y2="799" stroke-width="1.0" stroke="rgb(225,225,225)" />
<line x1="1112" y1="448" x2="1156" y2="448" stroke-width="1.0" stroke="rgb(225,225,225)" />
<line x1="3129" y1="2154" x2="3129" y2="2096" stroke-width="1.0" stroke="rgb(225,225,225)" />
<line x1="3128" y1="1991" x2="3034" y2="1991" stroke-width="1.0" stroke="rgb(225,225,225)" />
<line x1="1270" y1="417" x2="1270" y2="323" stroke-width="1.0" stroke="rgb(225,225,225)" />
<line x1="1218" y1="877" x2="1218" y2="907" stroke-width="1.0" stroke="rgb(225,225,225)" />
<line x1="1099" y1="583" x2="1099" y2="687" stroke-width="1.0" stroke="rgb(225,225,225)" />
<line x1="1099" y1="693" x2="1099" y2="797" stroke-width="1.0" stroke="rgb(225,225,225)" />
<line x1="1099" y1="803" x2="1099" y2="907" stroke-width="1.0" stroke="rgb(225,225,225)" />
<line x1="1218" y1="583" x2="1218" y2="702" stroke-width="1.0" stroke="rgb(225,225,225)" />
<line x1="1218" y1="708" x2="1218" y2="827" stroke-width="1.0" stroke="rgb(225,225,225)" />
<line x1="1344" y1="689" x2="1344" y2="629" stroke-width="1.0" stroke="rgb(225,225,225)" />
<line x1="1769" y1="1816" x2="1769" y2="1725" stroke-width="1.0" stroke="rgb(225,225,225)" />
<line x1="3163" y1="1084" x2="3163" y2="1109" stroke-width="1.0" stroke="rgb(225,225,225)" />
<line x1="3163" y1="1791" x2="3163" y2="1817" stroke-width="1.0" stroke="rgb(225,225,225)" />
<line x1="3163" y1="1111" x2="3163" y2="1147" stroke-width="1.0" stroke="rgb(225,225,225)" />
<line x1="3163" y1="1149" x2="3163" y2="1207" stroke-width="1.0" stroke="rgb(225,225,225)" />
<line x1="3163" y1="1209" x2="3163" y2="1267" stroke-width="1.0" stroke="rgb(225,225,225)" />
<line x1="3163" y1="1269" x2="3163" y2="1327" stroke-width="1.0" stroke="rgb(225,225,225)" />
<line x1="3163" y1="1329" x2="3163" y2="1387" stroke-width="1.0" stroke="rgb(225,225,225)" />
<line x1="3163" y1="1389" x2="3163" y2="1447" stroke-width="1.0" stroke="rgb(225,225,225)" />
<line x1="3163" y1="1449" x2="3163" y2="1507" stroke-width="1.0" stroke="rgb(225,225,225)" />
<line x1="3163" y1="1509" x2="3163" y2="1567" stroke-width="1.0" stroke="rgb(225,225,225)" />
<line x1="3163" y1="1569" x2="3163" y2="1627" stroke-width="1.0" stroke="rgb(225,225,225)" />
<line x1="3163" y1="1629" x2="3163" y2="1687" stroke-width="1.0" stroke="rgb(225,225,225)" />
<line x1="3163" y1="1689" x2="3163" y2="1747" stroke-width="1.0" stroke="rgb(225,225,225)" />
<line x1="3163" y1="1749" x2="3163" y2="1789" stroke-width="1.0" stroke="rgb(225,225,225)" />
<line x1="3149" y1="1926" x2="3149" y2="2092" stroke-width="1.0" stroke="rgb(225,225,225)" />
<line x1="423" y1="1817" x2="423" y2="1791" stroke-width="1.0" stroke="rgb(225,225,225)" />
<line x1="423" y1="1109" x2="423" y2="1084" stroke-width="1.0" stroke="rgb(225,225,225)" />
<line x1="423" y1="1747" x2="423" y2="1689" stroke-width="1.0" stroke="rgb(225,225,225)" />
<line x1="423" y1="1687" x2="423" y2="1629" stroke-width="1.0" stroke="rgb(225,225,225)" />
<line x1="423" y1="1627" x2="423" y2="1569" stroke-width="1.0" stroke="rgb(225,225,225)" />
<line x1="423" y1="1567" x2="423" y2="1509" stroke-width="1.0" stroke="rgb(225,225,225)" />
<line x1="423" y1="1507" x2="423" y2="1449" stroke-width="1.0" stroke="rgb(225,225,225)" />
<line x1="423" y1="1447" x2="423" y2="1389" stroke-width="1.0" stroke="rgb(225,225,225)" />
<line x1="423" y1="1387" x2="423" y2="1329" stroke-width="1.0" stroke="rgb(225,225,225)" />
<line x1="423" y1="1327" x2="423" y2="1269" stroke-width="1.0" stroke="rgb(225,225,225)" />
<line x1="423" y1="1267" x2="423" y2="1209" stroke-width="1.0" stroke="rgb(225,225,225)" />
<line x1="423" y1="1207" x2="423" y2="1149" stroke-width="1.0" stroke="rgb(225,225,225)" />
<line x1="423" y1="1147" x2="423" y2="1111" stroke-width="1.0" stroke="rgb(225,225,225)" />
<line x1="472" y1="1817" x2="472" y2="1960" stroke-width="1.0" stroke="rgb(225,225,225)" />
<polyline points="1150,372 1150,416 1170,416 1170,372" stroke-width="1.0" stroke="rgb(225,225,225)" fill="none" />
<polyline points="1178,595 1178,675 1114,675 1114,656 1108,656 1108,677 1180,677 1180,593 1108,593 1108,614 1114,614 1114,595" stroke-width="1.0" stroke="rgb(225,225,225)" fill="none" />
<polyline points="1178,815 1114,815 1114,834 1107,834 1107,813 1180,813 1180,897 1107,897 1107,876 1114,876 1114,895 1178,895" stroke-width="1.0" stroke="rgb(225,225,225)" fill="none" />
<polyline points="3035,2112 3079,2112 3079,2092 3035,2092" stroke-width="1.0" stroke="rgb(225,225,225)" fill="none" />
<polyline points="1336,692 1222,692 1222,608 1336,608" stroke-width="1.0" stroke="rgb(225,225,225)" fill="none" />
<polyline points="1222,718 1222,802 1336,802 1336,718" stroke-width="1.0" stroke="rgb(225,225,225)" fill="none" />
<polyline points="1249,588 1249,599 1277,599 1277,588" stroke-width="1.0" stroke="rgb(225,225,225)" fill="none" />
<polyline points="1289,673 1295,673 1295,649 1289,649" stroke-width="1.0" stroke="rgb(225,225,225)" fill="none" />
<polyline points="1289,746 1295,746 1295,770 1289,770" stroke-width="1.0" stroke="rgb(225,225,225)" fill="none" />
<polyline points="1249,821 1249,811 1277,811 1277,821" stroke-width="1.0" stroke="rgb(225,225,225)" fill="none" />
<polyline points="3083,2070 3127,2070" stroke-width="1.0" stroke="rgb(225,225,225)" fill="none" />
<polyline points="3127,2059 3083,2059" stroke-width="1.0" stroke="rgb(225,225,225)" fill="none" />
<polyline points="3083,2048 3127,2048" stroke-width="1.0" stroke="rgb(225,225,225)" fill="none" />
<polyline points="3127,2037 3083,2037" stroke-width="1.0" stroke="rgb(225,225,225)" fill="none" />
<polyline points="3083,2026 3127,2026" stroke-width="1.0" stroke="rgb(225,225,225)" fill="none" />
<polyline points="3127,2015 3083,2015" stroke-width="1.0" stroke="rgb(225,225,225)" fill="none" />
<polyline points="3127,2004 3083,2004" stroke-width="1.0" stroke="rgb(225,225,225)" fill="none" />
<polyline points="3127,1991 3083,1991" stroke-width="1.0" stroke="rgb(225,225,225)" fill="none" />
<polyline points="3083,1993 3127,1993" stroke-width="1.0" stroke="rgb(225,225,225)" fill="none" />
<polyline points="3079,1992 3035,1992" stroke-width="1.0" stroke="rgb(225,225,225)" fill="none" />
<polyline points="3035,2003 3079,2003" stroke-width="1.0" stroke="rgb(225,225,225)" fill="none" />
<polyline points="3079,2014 3035,2014" stroke-width="1.0" stroke="rgb(225,225,225)" fill="none" />
<polyline points="3035,2025 3079,2025" stroke-width="1.0" stroke="rgb(225,225,225)" fill="none" />
<polyline points="3035,2036 3079,2036" stroke-width="1.0" stroke="rgb(225,225,225)" fill="none" />
<polyline points="3035,2047 3079,2047" stroke-width="1.0" stroke="rgb(225,225,225)" fill="none" />
<polyline points="3035,2058 3079,2058" stroke-width="1.0" stroke="rgb(225,225,225)" fill="none" />
<polyline points="3035,2069 3079,2069" stroke-width="1.0" stroke="rgb(225,225,225)" fill="none" />
<polyline points="3079,2080 3035,2080" stroke-width="1.0" stroke="rgb(225,225,225)" fill="none" />
<polyline points="1191,324 1191,368" stroke-width="1.0" stroke="rgb(225,225,225)" fill="none" />
<polyline points="1202,324 1202,368" stroke-width="1.0" stroke="rgb(225,225,225)" fill="none" />
<polyline points="1213,368 1213,324" stroke-width="1.0" stroke="rgb(225,225,225)" fill="none" />
<polyline points="1224,368 1224,324" stroke-width="1.0" stroke="rgb(225,225,225)" fill="none" />
<polyline points="1235,368 1235,324" stroke-width="1.0" stroke="rgb(225,225,225)" fill="none" />
<polyline points="1246,324 1246,368" stroke-width="1.0" stroke="rgb(225,225,225)" fill="none" />
<polyline points="1257,324 1257,368" stroke-width="1.0" stroke="rgb(225,225,225)" fill="none" />
<polyline points="1270,324 1270,368" stroke-width="1.0" stroke="rgb(225,225,225)" fill="none" />
<polyline points="1269,372 1269,416" stroke-width="1.0" stroke="rgb(225,225,225)" fill="none" />
<polyline points="1258,372 1258,416" stroke-width="1.0" stroke="rgb(225,225,225)" fill="none" />
<polyline points="1247,416 1247,372" stroke-width="1.0" stroke="rgb(225,225,225)" fill="none" />
<polyline points="1236,416 1236,372" stroke-width="1.0" stroke="rgb(225,225,225)" fill="none" />
<polyline points="1225,416 1225,372" stroke-width="1.0" stroke="rgb(225,225,225)" fill="none" />
<polyline points="1214,416 1214,372" stroke-width="1.0" stroke="rgb(225,225,225)" fill="none" />
<polyline points="1203,416 1203,372" stroke-width="1.0" stroke="rgb(225,225,225)" fill="none" />
<polyline points="1192,372 1192,416" stroke-width="1.0" stroke="rgb(225,225,225)" fill="none" />
<polyline points="1181,416 1181,372" stroke-width="1.0" stroke="rgb(225,225,225)" fill="none" />
<polyline points="3146,2111 3146,2102 3132,2102 3132,2111" stroke-width="1.0" stroke="rgb(225,225,225)" fill="none" />
<polyline points="1114,925 1114,1079 1240,1079 1240,925" stroke-width="1.0" stroke="rgb(225,225,225)" fill="none" />
<polyline points="1194,615 1188,615 1186,615 1186,654 1188,655 1194,655" stroke-width="1.0" stroke="rgb(225,225,225)" fill="none" />
<polyline points="1194,725 1188,725 1186,725 1186,765 1188,765 1194,765" stroke-width="1.0" stroke="rgb(225,225,225)" fill="none" />
<polyline points="1194,835 1188,835 1186,836 1186,875 1188,875 1194,875" stroke-width="1.0" stroke="rgb(225,225,225)" fill="none" />
<polyline points="1114,678 1108,678 1105,677 1105,593 1108,592 1114,592" stroke-width="1.0" stroke="rgb(225,225,225)" fill="none" />
<polyline points="1114,788 1108,788 1105,787 1105,703 1108,702 1114,702" stroke-width="1.0" stroke="rgb(225,225,225)" fill="none" />
<polyline points="1114,898 1108,898 1105,898 1105,813 1108,813 1114,813" stroke-width="1.0" stroke="rgb(225,225,225)" fill="none" />
<polyline points="2777,1712 2777,1430 2775,1430 2633,1430 2634,1432 2777,1712 2633,1712" stroke-width="1.0" stroke="rgb(225,225,225)" fill="none" />
<polyline points="1569,1725 1569,1816 1769,1725 1569,1725 1571,1726 1769,1816 1569,1816" stroke-width="1.0" stroke="rgb(225,225,225)" fill="none" />
<polyline points="809,1430 809,1712 810,1710 952,1432 953,1430 953,1712" stroke-width="1.0" stroke="rgb(225,225,225)" fill="none" />
<polyline points="953,1430 809,1430 810,1432 952,1710 953,1712 809,1712" stroke-width="1.0" stroke="rgb(225,225,225)" fill="none" />
<polyline points="1107,703 1107,724 1113,724 1114,721 1114,705 1175,705 1178,705 1178,785 1114,785 1114,782 1114,766 1107,766 1107,787 1178,787 1180,787 1180,705 1180,703 1107,703" stroke-width="1.0" stroke="rgb(225,225,225)" fill="none" />
<polyline points="1326,690 1227,690 1224,690 1224,610 1326,610 1326,626 1327,629 1331,629 1331,627" stroke-width="1.0" stroke="rgb(225,225,225)" fill="none" />
<polyline points="1326,720 1227,720 1224,720 1224,799 1226,800 1326,800" stroke-width="1.0" stroke="rgb(225,225,225)" fill="none" />
<polyline points="1344,701 1336,701 1336,583" stroke-width="1.0" stroke="rgb(225,225,225)" fill="none" />
<polyline points="1326,800 1326,784 1326,781 1331,781 1331,783" stroke-width="1.0" stroke="rgb(225,225,225)" fill="none" />
<polyline points="1344,719 1338,719 1337,721 1337,812 1338,814 1344,814" stroke-width="1.0" stroke="rgb(225,225,225)" fill="none" />
<polyline points="3149,2096 3149,2174 3146,2175 2951,2175" stroke-width="1.0" stroke="rgb(225,225,225)" fill="none" />
<polyline points="3150,1823 3149,1823 3149,1919" stroke-width="1.0" stroke="rgb(225,225,225)" fill="none" />
<polyline points="1533,816 1533,1080 1533,1082 3141,1082" stroke-width="1.0" stroke="rgb(225,225,225)" fill="none" />
<polyline points="1268,368 1268,324 1268,368 1270,368" stroke-width="1.0" stroke="rgb(225,225,225)" fill="none" />
<polyline points="1379,298 1533,298 1533,301 1533,809" stroke-width="1.0" stroke="rgb(225,225,225)" fill="none" />
<polyline points="1111,297 1111,298 1373,298" stroke-width="1.0" stroke="rgb(225,225,225)" fill="none" />
<polyline points="445,1082 954,1082 954,1081" stroke-width="1.0" stroke="rgb(225,225,225)" fill="none" />
<polyline points="3129,2138 3148,2138 3148,2140 3148,2174" stroke-width="1.0" stroke="rgb(225,225,225)" fill="none" />
<polyline points="3129,2175 3131,2174 3148,2174" stroke-width="1.0" stroke="rgb(225,225,225)" fill="none" />
<polyline points="1164,448 1270,448 1270,445 1270,424" stroke-width="1.0" stroke="rgb(225,225,225)" fill="none" />
<polyline points="1260,841 1221,841 1218,841 1218,871" stroke-width="1.0" stroke="rgb(225,225,225)" fill="none" />
<polyline points="2633,1430 2633,1712 2634,1710 2777,1430" stroke-width="1.0" stroke="rgb(225,225,225)" fill="none" />
<polyline points="437,1827 437,1817 459,1817" stroke-width="1.0" stroke="rgb(225,225,225)" fill="none" />
<polyline points="459,1825 443,1825 443,1827" stroke-width="1.0" stroke="rgb(225,225,225)" fill="none" />
<polyline points="1326,689 1332,689 1333,689 1334,690 1336,690" stroke-width="1.0" stroke="rgb(225,225,225)" fill="none" />
<polyline points="1326,721 1332,721 1333,720 1334,720 1336,720" stroke-width="1.0" stroke="rgb(225,225,225)" fill="none" />
<polyline points="428,1823 425,1823 423,1823 423,1822 423,1819" stroke-width="1.0" stroke="rgb(225,225,225)" fill="none" />
<polyline points="3163,1819 3163,1822 3162,1823 3161,1823 3158,1823" stroke-width="1.0" stroke="rgb(225,225,225)" fill="none" />
<circle cx="140" cy="2585" r="" stroke-width="3.0" stroke="rgb(0,0,0)" fill="none" />
<path d="M 140,2585 A .,. 0 0 0 140,2585" stroke-width="3.0" stroke="rgb(0,0,0)" fill="none" />
<line x1="140" y1="2585" x2="140" y2="2585" stroke-width="3.0" stroke="rgb(0,0,0)" />
<polyline points="1545,286 1545,1068 3172,1068 3172,1833 3161,1833 3161,2187 2940,2187 2940,1973 457,1973 457,1833 413,1833 413,1068 1062,1068 1062,286" stroke-width="3.0" stroke="rgb(0,0,0)" fill="none" />
<circle cx="140" cy="2585" r="" stroke-width="1.0" stroke="rgb(125,125,125)" fill="none" />
<path d="M 140,2585 A .,. 0 0 0 140,2585" stroke-width="1.0" stroke="rgb(125,125,125)" fill="none" />
<line x1="1545" y1="572" x2="1545" y2="632" stroke-width="1.0" stroke="rgb(125,125,125)" />
<line x1="1542" y1="632" x2="1542" y2="572" stroke-width="1.0" stroke="rgb(125,125,125)" />
<line x1="1260" y1="878" x2="1218" y2="878" stroke-width="1.0" stroke="rgb(125,125,125)" />
<line x1="1218" y1="870" x2="1260" y2="870" stroke-width="1.0" stroke="rgb(125,125,125)" />
<line x1="1156" y1="444" x2="1112" y2="444" stroke-width="1.0" stroke="rgb(125,125,125)" />
<line x1="1112" y1="438" x2="1156" y2="438" stroke-width="1.0" stroke="rgb(125,125,125)" />
<line x1="435" y1="1754" x2="435" y2="1827" stroke-width="1.0" stroke="rgb(125,125,125)" />
<line x1="428" y1="1827" x2="428" y2="1754" stroke-width="1.0" stroke="rgb(125,125,125)" />
<line x1="2541" y1="1073" x2="2720" y2="1073" stroke-width="1.0" stroke="rgb(125,125,125)" />
<line x1="2720" y1="1070" x2="2541" y2="1070" stroke-width="1.0" stroke="rgb(125,125,125)" />
<line x1="2361" y1="1073" x2="2540" y2="1073" stroke-width="1.0" stroke="rgb(125,125,125)" />
<line x1="2540" y1="1070" x2="2361" y2="1070" stroke-width="1.0" stroke="rgb(125,125,125)" />
<line x1="2181" y1="1073" x2="2360" y2="1073" stroke-width="1.0" stroke="rgb(125,125,125)" />
<line x1="2360" y1="1070" x2="2181" y2="1070" stroke-width="1.0" stroke="rgb(125,125,125)" />
<line x1="2001" y1="1073" x2="2180" y2="1073" stroke-width="1.0" stroke="rgb(125,125,125)" />
<line x1="2180" y1="1070" x2="2001" y2="1070" stroke-width="1.0" stroke="rgb(125,125,125)" />
<line x1="1065" y1="872" x2="1065" y2="693" stroke-width="1.0" stroke="rgb(125,125,125)" />
<line x1="1062" y1="693" x2="1062" y2="872" stroke-width="1.0" stroke="rgb(125,125,125)" />
<line x1="1821" y1="1073" x2="2000" y2="1073" stroke-width="1.0" stroke="rgb(125,125,125)" />
<line x1="2000" y1="1070" x2="1821" y2="1070" stroke-width="1.0" stroke="rgb(125,125,125)" />
<line x1="554" y1="1073" x2="733" y2="1073" stroke-width="1.0" stroke="rgb(125,125,125)" />
<line x1="733" y1="1070" x2="554" y2="1070" stroke-width="1.0" stroke="rgb(125,125,125)" />
<line x1="1542" y1="813" x2="1542" y2="992" stroke-width="1.0" stroke="rgb(125,125,125)" />
<line x1="1545" y1="992" x2="1545" y2="813" stroke-width="1.0" stroke="rgb(125,125,125)" />
<line x1="1065" y1="512" x2="1065" y2="333" stroke-width="1.0" stroke="rgb(125,125,125)" />
<line x1="1062" y1="333" x2="1062" y2="512" stroke-width="1.0" stroke="rgb(125,125,125)" />
<line x1="2721" y1="1073" x2="2900" y2="1073" stroke-width="1.0" stroke="rgb(125,125,125)" />
<line x1="2900" y1="1070" x2="2721" y2="1070" stroke-width="1.0" stroke="rgb(125,125,125)" />
<line x1="1641" y1="1073" x2="1820" y2="1073" stroke-width="1.0" stroke="rgb(125,125,125)" />
<line x1="1820" y1="1070" x2="1641" y2="1070" stroke-width="1.0" stroke="rgb(125,125,125)" />
<line x1="734" y1="1073" x2="913" y2="1073" stroke-width="1.0" stroke="rgb(125,125,125)" />
<line x1="913" y1="1070" x2="734" y2="1070" stroke-width="1.0" stroke="rgb(125,125,125)" />
<line x1="1545" y1="812" x2="1545" y2="633" stroke-width="1.0" stroke="rgb(125,125,125)" />
<line x1="1542" y1="633" x2="1542" y2="812" stroke-width="1.0" stroke="rgb(125,125,125)" />
<line x1="1062" y1="513" x2="1062" y2="692" stroke-width="1.0" stroke="rgb(125,125,125)" />
<line x1="1065" y1="692" x2="1065" y2="513" stroke-width="1.0" stroke="rgb(125,125,125)" />
<line x1="3158" y1="1920" x2="3158" y2="2092" stroke-width="1.0" stroke="rgb(125,125,125)" />
<line x1="3161" y1="2092" x2="3161" y2="1920" stroke-width="1.0" stroke="rgb(125,125,125)" />
<line x1="1545" y1="1069" x2="1545" y2="993" stroke-width="1.0" stroke="rgb(125,125,125)" />
<line x1="1542" y1="993" x2="1542" y2="1069" stroke-width="1.0" stroke="rgb(125,125,125)" />
<line x1="2901" y1="1073" x2="3141" y2="1073" stroke-width="1.0" stroke="rgb(125,125,125)" />
<line x1="3141" y1="1070" x2="2901" y2="1070" stroke-width="1.0" stroke="rgb(125,125,125)" />
<line x1="1549" y1="1073" x2="1640" y2="1073" stroke-width="1.0" stroke="rgb(125,125,125)" />
<line x1="1640" y1="1070" x2="1549" y2="1070" stroke-width="1.0" stroke="rgb(125,125,125)" />
<line x1="445" y1="1073" x2="553" y2="1073" stroke-width="1.0" stroke="rgb(125,125,125)" />
<line x1="553" y1="1070" x2="445" y2="1070" stroke-width="1.0" stroke="rgb(125,125,125)" />
<line x1="1059" y1="1070" x2="914" y2="1070" stroke-width="1.0" stroke="rgb(125,125,125)" />
<line x1="914" y1="1073" x2="1059" y2="1073" stroke-width="1.0" stroke="rgb(125,125,125)" />
<line x1="1256" y1="289" x2="1376" y2="289" stroke-width="1.0" stroke="rgb(125,125,125)" />
<line x1="1376" y1="286" x2="1256" y2="286" stroke-width="1.0" stroke="rgb(125,125,125)" />
<line x1="1062" y1="873" x2="1062" y2="1073" stroke-width="1.0" stroke="rgb(125,125,125)" />
<line x1="1065" y1="1073" x2="1065" y2="873" stroke-width="1.0" stroke="rgb(125,125,125)" />
<line x1="1124" y1="289" x2="1256" y2="289" stroke-width="1.0" stroke="rgb(125,125,125)" />
<line x1="1256" y1="286" x2="1124" y2="286" stroke-width="1.0" stroke="rgb(125,125,125)" />
<line x1="3158" y1="1836" x2="3158" y2="1919" stroke-width="1.0" stroke="rgb(125,125,125)" />
<line x1="3161" y1="1919" x2="3161" y2="1836" stroke-width="1.0" stroke="rgb(125,125,125)" />
<line x1="2544" y1="1070" x2="2541" y2="1072" stroke-width="1.0" stroke="rgb(125,125,125)" />
<line x1="2540" y1="1070" x2="2538" y2="1073" stroke-width="1.0" stroke="rgb(125,125,125)" />
<line x1="2003" y1="1070" x2="2001" y2="1072" stroke-width="1.0" stroke="rgb(125,125,125)" />
<line x1="2000" y1="1070" x2="1998" y2="1073" stroke-width="1.0" stroke="rgb(125,125,125)" />
<line x1="733" y1="1070" x2="730" y2="1073" stroke-width="1.0" stroke="rgb(125,125,125)" />
<line x1="1543" y1="993" x2="1545" y2="995" stroke-width="1.0" stroke="rgb(125,125,125)" />
<line x1="1065" y1="515" x2="1063" y2="513" stroke-width="1.0" stroke="rgb(125,125,125)" />
<line x1="1545" y1="992" x2="1542" y2="990" stroke-width="1.0" stroke="rgb(125,125,125)" />
<line x1="1062" y1="510" x2="1065" y2="512" stroke-width="1.0" stroke="rgb(125,125,125)" />
<line x1="1640" y1="1071" x2="1638" y2="1073" stroke-width="1.0" stroke="rgb(125,125,125)" />
<line x1="736" y1="1070" x2="734" y2="1072" stroke-width="1.0" stroke="rgb(125,125,125)" />
<line x1="448" y1="1070" x2="445" y2="1072" stroke-width="1.0" stroke="rgb(125,125,125)" />
<line x1="1056" y1="1073" x2="1059" y2="1070" stroke-width="1.0" stroke="rgb(125,125,125)" />
<line x1="2941" y1="1969" x2="2943" y2="1972" stroke-width="1.0" stroke="rgb(125,125,125)" />
<line x1="2940" y1="2133" x2="2943" y2="2136" stroke-width="1.0" stroke="rgb(125,125,125)" />
<line x1="1376" y1="286" x2="1373" y2="289" stroke-width="1.0" stroke="rgb(125,125,125)" />
<line x1="1065" y1="288" x2="1068" y2="286" stroke-width="1.0" stroke="rgb(125,125,125)" />
<line x1="2943" y1="2184" x2="2940" y2="2181" stroke-width="1.0" stroke="rgb(125,125,125)" />
<line x1="2943" y1="2139" x2="2941" y2="2136" stroke-width="1.0" stroke="rgb(125,125,125)" />
<line x1="3161" y1="1839" x2="3159" y2="1836" stroke-width="1.0" stroke="rgb(125,125,125)" />
<polyline points="1119,459 1119,461 1095,461 1095,456 1075,456 1075,464 1348,464 1348,438 1351,438 1351,367 1344,367 1344,459" stroke-width="1.0" stroke="rgb(125,125,125)" fill="none" />
<polyline points="1882,1973 1883,1973 1883,1974 1885,1974 1885,1973 1884,1973 1884,1972 1882,1972 1882,1973 1881,1973 1881,1974 1882,1974" stroke-width="1.0" stroke="rgb(125,125,125)" fill="none" />
<polyline points="2242,1973 2243,1973 2243,1974 2245,1974 2245,1973 2244,1973 2244,1972 2242,1972 2242,1973 2241,1973 2241,1974 2242,1974" stroke-width="1.0" stroke="rgb(125,125,125)" fill="none" />
<polyline points="802,1973 803,1973 803,1974 805,1974 805,1973 804,1973 804,1972 802,1972 802,1973 801,1973 801,1974 802,1974" stroke-width="1.0" stroke="rgb(125,125,125)" fill="none" />
<polyline points="1162,1973 1163,1973 1163,1974 1165,1974 1165,1973 1164,1973 1164,1972 1162,1972 1162,1973 1161,1973 1161,1974 1162,1974" stroke-width="1.0" stroke="rgb(125,125,125)" fill="none" />
<polyline points="1522,1973 1523,1973 1523,1974 1525,1974 1525,1973 1524,1973 1524,1972 1522,1972 1522,1973 1521,1973 1521,1974 1522,1974" stroke-width="1.0" stroke="rgb(125,125,125)" fill="none" />
<polyline points="2602,1973 2603,1973 2603,1974 2605,1974 2605,1973 2604,1973 2604,1972 2602,1972 2602,1973 2601,1973 2601,1974 2602,1974" stroke-width="1.0" stroke="rgb(125,125,125)" fill="none" />
<polyline points="2940,1972 2940,1973 2938,1973 2938,1974 2940,1974 2940,1972" stroke-width="1.0" stroke="rgb(125,125,125)" fill="none" />
<polyline points="1349,578 1075,578 1075,583 1344,583 1344,627 1349,627" stroke-width="1.0" stroke="rgb(125,125,125)" fill="none" />
<polyline points="1194,907 1199,907 1199,583 1194,583" stroke-width="1.0" stroke="rgb(125,125,125)" fill="none" />
<polyline points="1075,907 1075,913 1265,913 1265,832 1349,832 1349,691 1344,691 1344,827 1199,827 1199,832 1260,832 1260,871 1199,871 1199,877 1260,877 1260,907" stroke-width="1.0" stroke="rgb(125,125,125)" fill="none" />
<polyline points="3039,1919 3039,1926 3152,1926 3152,1919" stroke-width="1.0" stroke="rgb(125,125,125)" fill="none" />
<polyline points="2950,1960 2950,1926 2999,1926 2999,1919 2944,1919 2944,1960" stroke-width="1.0" stroke="rgb(125,125,125)" fill="none" />
<polyline points="1344,327 1351,327 1351,323 1379,323 1379,294 1373,294 1373,319 1344,319" stroke-width="1.0" stroke="rgb(125,125,125)" fill="none" />
<polyline points="1059,1068 1059,1078 1059,1078 1059,1068" stroke-width="1.0" stroke="rgb(125,125,125)" fill="none" />
<polyline points="3141,1068 3141,1078 3141,1078 3141,1068" stroke-width="1.0" stroke="rgb(125,125,125)" fill="none" />
<polyline points="444,1068 444,1078 445,1078 445,1068" stroke-width="1.0" stroke="rgb(125,125,125)" fill="none" />
<polyline points="1548,1068 1548,1078 1549,1078 1549,1068" stroke-width="1.0" stroke="rgb(125,125,125)" fill="none" />
<polyline points="3161,1836 3152,1836 3152,1836 3161,1836" stroke-width="1.0" stroke="rgb(125,125,125)" fill="none" />
<polyline points="459,1972 459,1948 457,1948 457,1973 482,1973 482,1972" stroke-width="1.0" stroke="rgb(125,125,125)" fill="none" />
<polyline points="1105,316 1105,461 1112,461 1112,323 1344,323 1344,316" stroke-width="1.0" stroke="rgb(125,125,125)" fill="none" />
<polyline points="1156,459 1164,459 1164,424 1275,424 1275,459 1282,459 1282,417 1156,417" stroke-width="1.0" stroke="rgb(125,125,125)" fill="none" />
<polyline points="1424,832 1424,825 1349,825 1349,832" stroke-width="1.0" stroke="rgb(125,125,125)" fill="none" />
<polyline points="1500,825 1500,832 1533,832 1533,816 1537,816 1537,809 1526,809 1526,825" stroke-width="1.0" stroke="rgb(125,125,125)" fill="none" />
<polyline points="441,1074 441,1068 413,1068 413,1253 419,1253 419,1074" stroke-width="1.0" stroke="rgb(125,125,125)" fill="none" />
<polyline points="3172,1449 3166,1449 3166,1643 3172,1643" stroke-width="1.0" stroke="rgb(125,125,125)" fill="none" />
<polyline points="3166,1253 3172,1253 3172,1068 3144,1068 3144,1074 3166,1074" stroke-width="1.0" stroke="rgb(125,125,125)" fill="none" />
<polyline points="3166,1827 3158,1827 3158,1833 3172,1833 3172,1644 3166,1644" stroke-width="1.0" stroke="rgb(125,125,125)" fill="none" />
<polyline points="419,1449 413,1449 413,1643 419,1643" stroke-width="1.0" stroke="rgb(125,125,125)" fill="none" />
<polyline points="413,1448 419,1448 419,1254 413,1254" stroke-width="1.0" stroke="rgb(125,125,125)" fill="none" />
<polyline points="441,1833 441,1827 419,1827 419,1644 413,1644 413,1833" stroke-width="1.0" stroke="rgb(125,125,125)" fill="none" />
<polyline points="3166,1448 3172,1448 3172,1254 3166,1254" stroke-width="1.0" stroke="rgb(125,125,125)" fill="none" />
<polyline points="3014,2110 3034,2110 3034,1981 2995,1981 2995,1926 2988,1926 2988,1987 3028,1987 3028,2104 2950,2104 2950,2110 3007,2110 3007,2154 2957,2154 2950,2161 3130,2161 3130,2154 3014,2154" stroke-width="1.0" stroke="rgb(125,125,125)" fill="none" />
<polyline points="459,1831 457,1831 457,1948 459,1948" stroke-width="1.0" stroke="rgb(125,125,125)" fill="none" />
<polyline points="804,1972 804,1973 1162,1973 1162,1972" stroke-width="1.0" stroke="rgb(125,125,125)" fill="none" />
<polyline points="1884,1972 1884,1973 2242,1973 2242,1972" stroke-width="1.0" stroke="rgb(125,125,125)" fill="none" />
<polyline points="2244,1972 2244,1973 2602,1973 2602,1972" stroke-width="1.0" stroke="rgb(125,125,125)" fill="none" />
<polyline points="459,1831 459,1829 444,1829 444,1831" stroke-width="1.0" stroke="rgb(125,125,125)" fill="none" />
<polyline points="482,1972 482,1973 802,1973 802,1972" stroke-width="1.0" stroke="rgb(125,125,125)" fill="none" />
<polyline points="1164,1972 1164,1973 1522,1973 1522,1972" stroke-width="1.0" stroke="rgb(125,125,125)" fill="none" />
<polyline points="1524,1972 1524,1973 1882,1973 1882,1972" stroke-width="1.0" stroke="rgb(125,125,125)" fill="none" />
<polyline points="2936,1972 2936,1973 2939,1973 2939,1972" stroke-width="1.0" stroke="rgb(125,125,125)" fill="none" />
<polyline points="2896,1973 2896,1972 2604,1972 2604,1973" stroke-width="1.0" stroke="rgb(125,125,125)" fill="none" />
<polyline points="3128,1926 3128,2096 3153,2096 3153,2092 3133,2092 3133,1926" stroke-width="1.0" stroke="rgb(125,125,125)" fill="none" />
<polyline points="471,1960 471,1754 459,1754 459,1972 2896,1972 2896,1960" stroke-width="1.0" stroke="rgb(125,125,125)" fill="none" />
<polyline points="1173,459 1173,558 1176,558 1435,558 1435,389 1435,387 1351,387" stroke-width="1.0" stroke="rgb(125,125,125)" fill="none" />
<polyline points="1534,573 1534,1080 1535,1082 1541,1082 1542,1081 3141,1081 3141,1084 3152,1084 3152,1816 3151,1816 3150,1819 3150,1823 3153,1823 3156,1823 3158,1823 3158,2092 3153,2092 3150,2092 3150,1823 3158,1823 3159,1821 3159,1081 3160,1081 3162,1079 3166,1074 3164,1074 1544,1074 1542,1074 1542,572" stroke-width="1.0" stroke="rgb(125,125,125)" fill="none" />
<polyline points="457,1948 457,1945 457,1834 457,1831" stroke-width="1.0" stroke="rgb(125,125,125)" fill="none" />
<polyline points="802,1973 799,1973 485,1973 482,1973" stroke-width="1.0" stroke="rgb(125,125,125)" fill="none" />
<polyline points="1162,1973 1159,1973 807,1973 804,1973" stroke-width="1.0" stroke="rgb(125,125,125)" fill="none" />
<polyline points="1522,1973 1519,1973 1167,1973 1164,1973" stroke-width="1.0" stroke="rgb(125,125,125)" fill="none" />
<polyline points="1882,1973 1879,1973 1527,1973 1524,1973" stroke-width="1.0" stroke="rgb(125,125,125)" fill="none" />
<polyline points="2242,1973 2239,1973 1887,1973 1884,1973" stroke-width="1.0" stroke="rgb(125,125,125)" fill="none" />
<polyline points="2602,1973 2599,1973 2247,1973 2244,1973" stroke-width="1.0" stroke="rgb(125,125,125)" fill="none" />
<polyline points="2896,1973 2894,1973 2607,1973 2604,1973" stroke-width="1.0" stroke="rgb(125,125,125)" fill="none" />
<polyline points="482,1973 479,1973 458,1973 457,1973 457,1972 457,1951 457,1948" stroke-width="1.0" stroke="rgb(125,125,125)" fill="none" />
<polyline points="1123,286 1065,286 1062,286 1062,332" stroke-width="1.0" stroke="rgb(125,125,125)" fill="none" />
<polyline points="2944,2183 3126,2183 3126,2178 3125,2176 2954,2176 2951,2176 2951,1962 2951,1960 2939,1960 2936,1960 2936,1970 2937,1972 2944,1972 2944,2181 2943,2183" stroke-width="1.0" stroke="rgb(125,125,125)" fill="none" />
<polyline points="1376,290 1066,290 1066,292 1066,1074 445,1074 445,1076 445,1078 429,1078 427,1078 427,1754 470,1754 470,1750 470,1748 436,1748 434,1748 434,1084 436,1084 442,1084 445,1084 445,1081 448,1081 1073,1081 1073,299 1074,297 1376,297 1376,292 1376,290" stroke-width="1.0" stroke="rgb(125,125,125)" fill="none" />
<polyline points="3126,2184 2943,2184 2943,1969" stroke-width="1.0" stroke="rgb(125,125,125)" fill="none" />
<polyline points="2940,1969 2940,2187 3126,2187" stroke-width="1.0" stroke="rgb(125,125,125)" fill="none" />
<polyline points="1065,332 1065,289 1068,289 1123,289" stroke-width="1.0" stroke="rgb(125,125,125)" fill="none" />
<polyline points="2994,2175 2992,2175 2990,2175 2988,2175" stroke-width="1.0" stroke="rgb(125,125,125)" fill="none" />
<polyline points="1542,573 1536,573 1534,572" stroke-width="1.0" stroke="rgb(125,125,125)" fill="none" />
<polyline points="464,1971 463,1970 464,1968 464,1967 464,1966" stroke-width="1.0" stroke="rgb(125,125,125)" fill="none" />
<polyline points="469,1966 468,1965 468,1964 469,1962" stroke-width="1.0" stroke="rgb(125,125,125)" fill="none" />
<polyline points="457,1831 446,1831 444,1831" stroke-width="1.0" stroke="rgb(125,125,125)" fill="none" />
<polyline points="2896,1966 2895,1966 2895,1968 2895,1969 2896,1970 2895,1971" stroke-width="1.0" stroke="rgb(125,125,125)" fill="none" />
<polyline points="2896,1962 2895,1962 2895,1963 2895,1964 2896,1965 2895,1966" stroke-width="1.0" stroke="rgb(125,125,125)" fill="none" />
<polyline points="2939,1971 2937,1970 2939,1967 2938,1966 2936,1967" stroke-width="1.0" stroke="rgb(125,125,125)" fill="none" />
<polyline points="2944,2182 2945,2181 2945,2180 2944,2178" stroke-width="1.0" stroke="rgb(125,125,125)" fill="none" />
<polyline points="3126,2178 3125,2179 3124,2181 3124,2182 3126,2182" stroke-width="1.0" stroke="rgb(125,125,125)" fill="none" />
<polyline points="2944,1973 2945,1973 2947,1974 2948,1972" stroke-width="1.0" stroke="rgb(125,125,125)" fill="none" />
<polyline points="462,1754 462,1756 464,1755 466,1754" stroke-width="1.0" stroke="rgb(125,125,125)" fill="none" />
<polyline points="466,1754 467,1756 469,1755 471,1755" stroke-width="1.0" stroke="rgb(125,125,125)" fill="none" />
<polyline points="470,1961 469,1960 467,1960 467,1961 468,1962 469,1961" stroke-width="1.0" stroke="rgb(125,125,125)" fill="none" />
<polyline points="466,1962 466,1963 464,1964 463,1964 462,1963 463,1962 464,1963 465,1963 466,1964" stroke-width="1.0" stroke="rgb(125,125,125)" fill="none" />
<polyline points="465,1966 464,1965 463,1964 462,1965 462,1967 464,1966 465,1966" stroke-width="1.0" stroke="rgb(125,125,125)" fill="none" />
<polyline points="2951,1961 2950,1962 2951,1965" stroke-width="1.0" stroke="rgb(125,125,125)" fill="none" />
<polyline points="2951,1966 2950,1967 2951,1970" stroke-width="1.0" stroke="rgb(125,125,125)" fill="none" />
<polyline points="2939,1966 2937,1965 2939,1962 2938,1961 2936,1962" stroke-width="1.0" stroke="rgb(125,125,125)" fill="none" />
<polyline points="1343,627 1343,629 1350,629 1350,627" stroke-width="1.0" stroke="rgb(125,125,125)" fill="none" />
<polyline points="1343,691 1343,689 1350,689 1350,691" stroke-width="1.0" stroke="rgb(125,125,125)" fill="none" />
<polyline points="1342,692 1342,659 1343,659 1343,692" stroke-width="1.0" stroke="rgb(125,125,125)" fill="none" />
<polyline points="1342,626 1342,658 1343,658 1343,626" stroke-width="1.0" stroke="rgb(125,125,125)" fill="none" />
<polyline points="1344,330 1344,329 1308,329 1308,330" stroke-width="1.0" stroke="rgb(125,125,125)" fill="none" />
<polyline points="3002,1926 3001,1926 3001,1962 3002,1962" stroke-width="1.0" stroke="rgb(125,125,125)" fill="none" />
<polyline points="2933,1974 2934,1974 2934,2010 2933,2010" stroke-width="1.0" stroke="rgb(125,125,125)" fill="none" />
<polyline points="1497,788 1498,788 1498,824 1497,824" stroke-width="1.0" stroke="rgb(125,125,125)" fill="none" />
<polyline points="1428,824 1426,824 1426,788 1428,788" stroke-width="1.0" stroke="rgb(125,125,125)" fill="none" />
<polyline points="3144,1074 3144,1072" stroke-width="1.0" stroke="rgb(125,125,125)" fill="none" />
<polyline points="3141,1072 3141,1074" stroke-width="1.0" stroke="rgb(125,125,125)" fill="none" />
<polyline points="1062,1074 1062,1072" stroke-width="1.0" stroke="rgb(125,125,125)" fill="none" />
<polyline points="1059,1072 1059,1074" stroke-width="1.0" stroke="rgb(125,125,125)" fill="none" />
<polyline points="444,1829 444,1827" stroke-width="1.0" stroke="rgb(125,125,125)" fill="none" />
<polyline points="441,1827 441,1829" stroke-width="1.0" stroke="rgb(125,125,125)" fill="none" />
<polyline points="444,1074 444,1072" stroke-width="1.0" stroke="rgb(125,125,125)" fill="none" />
<polyline points="441,1072 441,1074" stroke-width="1.0" stroke="rgb(125,125,125)" fill="none" />
<polyline points="3158,1836 3160,1836" stroke-width="1.0" stroke="rgb(125,125,125)" fill="none" />
<polyline points="3160,1833 3158,1833" stroke-width="1.0" stroke="rgb(125,125,125)" fill="none" />
<polyline points="1548,1074 1548,1072" stroke-width="1.0" stroke="rgb(125,125,125)" fill="none" />
<polyline points="1545,1072 1545,1074" stroke-width="1.0" stroke="rgb(125,125,125)" fill="none" />
<polyline points="3144,1072 3143,1072" stroke-width="1.0" stroke="rgb(125,125,125)" fill="none" />
<polyline points="3142,1072 3142,1072" stroke-width="1.0" stroke="rgb(125,125,125)" fill="none" />
<polyline points="1062,1072 1061,1072" stroke-width="1.0" stroke="rgb(125,125,125)" fill="none" />
<polyline points="1060,1072 1060,1072" stroke-width="1.0" stroke="rgb(125,125,125)" fill="none" />
<polyline points="1547,1072 1547,1072 1546,1072 1547,1072" stroke-width="1.0" stroke="rgb(125,125,125)" fill="none" />
<polyline points="443,1828 444,1829" stroke-width="1.0" stroke="rgb(125,125,125)" fill="none" />
<polyline points="3160,1835 3159,1835 3160,1835 3160,1834" stroke-width="1.0" stroke="rgb(125,125,125)" fill="none" />
<polyline points="442,1829 442,1828" stroke-width="1.0" stroke="rgb(125,125,125)" fill="none" />
<polyline points="444,1072 443,1072" stroke-width="1.0" stroke="rgb(125,125,125)" fill="none" />
<polyline points="442,1072 442,1072" stroke-width="1.0" stroke="rgb(125,125,125)" fill="none" />
<polyline points="3160,1835 3159,1835" stroke-width="1.0" stroke="rgb(125,125,125)" fill="none" />
<polyline points="3159,1834 3160,1833" stroke-width="1.0" stroke="rgb(125,125,125)" fill="none" />
<polyline points="443,1072 443,1072 443,1072 442,1072" stroke-width="1.0" stroke="rgb(125,125,125)" fill="none" />
<polyline points="1548,1072 1547,1072" stroke-width="1.0" stroke="rgb(125,125,125)" fill="none" />
<polyline points="1546,1072 1546,1072" stroke-width="1.0" stroke="rgb(125,125,125)" fill="none" />
<polyline points="3143,1072 3143,1072" stroke-width="1.0" stroke="rgb(125,125,125)" fill="none" />
<polyline points="1061,1072 1061,1072" stroke-width="1.0" stroke="rgb(125,125,125)" fill="none" />
<polyline points="442,1829 442,1828 442,1829 443,1829" stroke-width="1.0" stroke="rgb(125,125,125)" fill="none" />
<polyline points="443,1829 443,1828" stroke-width="1.0" stroke="rgb(125,125,125)" fill="none" />
<polyline points="1061,1072 1060,1072" stroke-width="1.0" stroke="rgb(125,125,125)" fill="none" />
<polyline points="3160,1834 3159,1834" stroke-width="1.0" stroke="rgb(125,125,125)" fill="none" />
<polyline points="3143,1072 3142,1072" stroke-width="1.0" stroke="rgb(125,125,125)" fill="none" />
<circle cx="140" cy="2585" r="" stroke-width="1.0" stroke="rgb(225,225,225)" fill="none" />
<path d="M 1344,365 A 35.99,35.99 0 0 1 1308,329" stroke-width="1.0" stroke="rgb(225,225,225)" fill="none" />
<path d="M 3037,1926 A 35.99,35.99 0 0 1 3001,1962" stroke-width="1.0" stroke="rgb(225,225,225)" fill="none" />
<path d="M 2898,1974 A 35.99,35.99 0 0 0 2934,2010" stroke-width="1.0" stroke="rgb(225,225,225)" fill="none" />
<path d="M 1462,824 A 36.00,36.00 0 0 1 1498,788" stroke-width="1.0" stroke="rgb(225,225,225)" fill="none" />
<path d="M 1462,824 A 36.00,36.00 0 0 0 1426,788" stroke-width="1.0" stroke="rgb(225,225,225)" fill="none" />
<line x1="140" y1="2585" x2="140" y2="2585" stroke-width="1.0" stroke="rgb(225,225,225)" />
<polyline points="1543,513 1543,571 1544,571 1544,513" stroke-width="1.0" stroke="rgb(225,225,225)" fill="none" />
<polyline points="1436,288 1378,288 1378,289 1436,289" stroke-width="1.0" stroke="rgb(225,225,225)" fill="none" />
<polyline points="1544,453 1543,453 1543,512 1544,512" stroke-width="1.0" stroke="rgb(225,225,225)" fill="none" />
<polyline points="1543,452 1544,452 1544,393 1543,393" stroke-width="1.0" stroke="rgb(225,225,225)" fill="none" />
<polyline points="1543,392 1544,392 1544,333 1543,333" stroke-width="1.0" stroke="rgb(225,225,225)" fill="none" />
<polyline points="1496,289 1496,288 1436,288 1436,289" stroke-width="1.0" stroke="rgb(225,225,225)" fill="none" />
<polyline points="1496,288 1496,289 1542,289 1542,288" stroke-width="1.0" stroke="rgb(225,225,225)" fill="none" />
<polyline points="1544,289 1543,289 1543,332 1544,332" stroke-width="1.0" stroke="rgb(225,225,225)" fill="none" />
<polyline points="3161,2154 3160,2154 3160,2185 3161,2185" stroke-width="1.0" stroke="rgb(225,225,225)" fill="none" />
<polyline points="3159,2186 3159,2185 3128,2185 3128,2186" stroke-width="1.0" stroke="rgb(225,225,225)" fill="none" />
<polyline points="3161,2095 3160,2095 3160,2152 3161,2152" stroke-width="1.0" stroke="rgb(225,225,225)" fill="none" />
</svg>
